<svg width="64" height="64" viewBox="0 0 64 64" fill="none" xmlns="http://www.w3.org/2000/svg">
<rect width="64" height="64" rx="32" fill="white"/>
<path d="M32 0C14.336 0 0 14.336 0 32C0 49.664 14.336 64 32 64C49.664 64 64 49.664 64 32C64 14.336 49.664 0 32 0ZM44.128 31.072L34.272 40.928C33.024 42.176 31.008 42.176 29.728 40.928L19.872 31.072C18.624 29.824 18.624 27.776 19.872 26.528C21.12 25.28 23.136 25.28 24.384 26.528L32 34.144L39.616 26.528C40.864 25.28 42.88 25.28 44.128 26.528C45.376 27.776 45.376 29.824 44.128 31.072Z" fill="black"/>
</svg>
