<svg width="28" height="28" viewBox="0 0 28 28" fill="none" xmlns="http://www.w3.org/2000/svg">
<g id="28px icon=git">
<path id="Vector" d="M14.2964 2.33337C7.68689 2.33337 2.3335 7.68975 2.3335 14.2963C2.3335 19.5829 5.76086 24.0659 10.5131 25.646C11.1113 25.7587 11.3306 25.3888 11.3306 25.0708C11.3306 24.7867 11.3206 24.034 11.3156 23.0371C7.98795 23.7589 7.28613 21.4321 7.28613 21.4321C6.74182 20.0514 5.95526 19.6825 5.95526 19.6825C4.87162 18.9408 6.039 18.9558 6.039 18.9558C7.24027 19.0395 7.87131 20.188 7.87131 20.188C8.938 22.0173 10.6716 21.4889 11.3555 21.1829C11.4632 20.4093 11.7712 19.8819 12.1132 19.5829C9.4564 19.2838 6.66406 18.255 6.66406 13.6712C6.66406 12.3652 7.12762 11.2986 7.89524 10.4612C7.76066 10.1591 7.35691 8.94287 7.99991 7.29498C7.99991 7.29498 9.00181 6.97398 11.2897 8.52117C12.2467 8.255 13.2636 8.12341 14.2804 8.11743C15.2973 8.12341 16.3141 8.255 17.2711 8.52117C19.5441 6.97398 20.546 7.29498 20.546 7.29498C21.189 8.94287 20.7852 10.1591 20.6656 10.4612C21.4282 11.2986 21.8918 12.3652 21.8918 13.6712C21.8918 18.2669 19.0955 19.2788 16.4337 19.5729C16.8524 19.9318 17.2412 20.6655 17.2412 21.786C17.2412 23.387 17.2263 24.6731 17.2263 25.0619C17.2263 25.3759 17.4356 25.7497 18.0487 25.6301C22.8349 24.061 26.2593 19.5749 26.2593 14.2963C26.2593 7.68975 20.9029 2.33337 14.2964 2.33337Z" fill="#2E2F33"/>
</g>
</svg>
