<svg width="64" height="64" viewBox="0 0 64 64" fill="none" xmlns="http://www.w3.org/2000/svg">
<rect width="64" height="64" rx="32" fill="white"/>
<path d="M32 0C14.336 0 0 14.336 0 32C0 49.664 14.336 64 32 64C49.664 64 64 49.664 64 32C64 14.336 49.664 0 32 0ZM44.8 35.2H35.2V44.8C35.2 46.56 33.76 48 32 48C30.24 48 28.8 46.56 28.8 44.8V35.2H19.2C17.44 35.2 16 33.76 16 32C16 30.24 17.44 28.8 19.2 28.8H28.8V19.2C28.8 17.44 30.24 16 32 16C33.76 16 35.2 17.44 35.2 19.2V28.8H44.8C46.56 28.8 48 30.24 48 32C48 33.76 46.56 35.2 44.8 35.2Z" fill="black"/>
</svg>
