<svg width="24" height="24" viewBox="0 0 24 24" fill="none" xmlns="http://www.w3.org/2000/svg">
<g id="icon / jam-icons / outline &#38; logos / check">
<path id="Vector" d="M10.9147 17.2103C10.7669 17.2106 10.6206 17.1818 10.484 17.1254C10.3474 17.069 10.2234 16.9861 10.1189 16.8817L5.34419 12.1058C5.23661 12.0021 5.15078 11.878 5.09169 11.7407C5.03261 11.6034 5.00145 11.4557 5.00005 11.3063C4.99865 11.1568 5.02702 11.0086 5.08352 10.8702C5.14002 10.7318 5.2235 10.6061 5.32911 10.5004C5.43472 10.3946 5.56033 10.3109 5.69862 10.2542C5.83691 10.1975 5.9851 10.169 6.13455 10.1702C6.28401 10.1713 6.43173 10.2023 6.56909 10.2612C6.70646 10.3201 6.83072 10.4057 6.93463 10.5132L10.9135 14.4921L18.0778 7.33002C18.2889 7.11882 18.5752 7.00011 18.8738 7C19.1724 6.99989 19.4588 7.1184 19.67 7.32946C19.8812 7.54051 19.9999 7.82683 20 8.12541C20.0001 8.42399 19.8816 8.71039 19.6705 8.92159L11.7105 16.8817C11.606 16.9861 11.4819 17.069 11.3453 17.1254C11.2088 17.1818 11.0624 17.2106 10.9147 17.2103Z" fill="#25A249"/>
</g>
</svg>
