<svg width="88" height="24" viewBox="0 0 88 24" fill="none" xmlns="http://www.w3.org/2000/svg">
<g id="rogo=light" clip-path="url(#clip0_1_1063)">
<path id="Vector" d="M0 0.130127H5.45239C8.52962 0.130127 10.128 1.61749 10.128 4.46226V19.5092C10.128 22.455 8.52962 23.8702 5.45239 23.8702H0V0.130127ZM5.1835 20.9965C6.28892 20.9965 6.88644 20.4189 6.88644 19.3503V4.72218C6.88644 3.68247 6.28892 3.00377 5.1835 3.00377H3.24156V20.9965H5.1835Z" fill="black"/>
<path id="Vector_2" d="M20.8826 23.8702H13.1597V0.130127H20.7183V3.10486H16.4012V9.73301H20.2403V12.6355H16.4012V20.9099H20.8826V23.8846V23.8702Z" fill="black"/>
<path id="Vector_3" d="M27.1578 23.2637C24.1851 19.0327 23.4531 16.5778 23.4531 8.14457V0.130127H26.6947V10.1373C26.6947 14.6861 27.0681 17.0543 28.069 19.1771L28.3976 19.8846H28.5918L28.9204 19.1771C29.9213 17.0399 30.2947 14.6861 30.2947 10.1373V0.130127H33.5363V8.14457C33.5363 16.6067 32.7296 19.0615 29.7869 23.2926L29.3835 23.8702H27.576L27.1428 23.2637H27.1578Z" fill="black"/>
<path id="Vector_4" d="M44.5299 12.5633V23.8702H41.2883V0.130127H46.905C49.9823 0.130127 51.5806 1.61749 51.5806 4.46226V8.30341C51.5806 9.372 51.1773 10.5272 49.9823 11.1482C51.1923 11.7258 51.5806 12.8666 51.5806 14.0507V23.8702H48.3391V14.2095C48.3391 13.141 47.7416 12.5633 46.6361 12.5633H44.5299ZM44.5299 9.79078H46.6361C47.7416 9.79078 48.3391 9.21316 48.3391 8.14457V4.72218C48.3391 3.68247 47.7416 3.00377 46.6361 3.00377H44.5299V9.79078Z" fill="black"/>
<path id="Vector_5" d="M61.2316 12.6644H57.6166V23.8702H54.375V13.603C54.375 6.36839 55.107 4.59222 58.0498 0.57778L58.3784 0.130127H60.4548L60.7834 0.57778C63.7561 4.6211 64.4582 6.35395 64.4582 13.603V23.8702H61.2166V12.6644H61.2316ZM57.6614 9.79078H61.2017C61.0672 7.3359 60.6639 5.87742 59.8573 4.30341L59.5286 3.65359H59.3344L59.0058 4.30341C58.1991 5.89186 57.7958 7.3359 57.6614 9.79078Z" fill="black"/>
<path id="Vector_6" d="M67.386 19.509V4.41877C67.386 1.51625 69.0292 0 72.0317 0H72.8384C75.8857 0 77.4841 1.51625 77.4841 4.41877V8.04332H74.2724V4.46209C74.2724 3.36462 73.6749 2.65704 72.5695 2.65704H72.3006C71.1952 2.65704 70.6275 3.36462 70.6275 4.46209V19.5812C70.6275 20.7076 71.1952 21.3574 72.3006 21.3574H72.5695C73.6749 21.3574 74.2724 20.7076 74.2724 19.5812V15.4801H77.4841V19.5235C77.4841 22.5271 75.8857 24.0144 72.8384 24.0144H72.0317C69.0292 24.0144 67.386 22.5271 67.386 19.5235V19.509Z" fill="black"/>
<path id="Vector_7" d="M88.0003 23.8702H80.2773V0.130127H87.836V3.10486H83.5189V9.73301H87.358V12.6355H83.5189V20.9099H88.0003V23.8846V23.8702Z" fill="black"/>
</g>
<defs>
<clipPath id="clip0_1_1063">
<rect width="88" height="24" fill="white"/>
</clipPath>
</defs>
</svg>
