<svg width="16" height="24" viewBox="0 0 16 24" fill="none" xmlns="http://www.w3.org/2000/svg">
<g id="_&#235;&#160;&#136;&#236;&#157;&#180;&#236;&#150;&#180;_1" clip-path="url(#clip0_1_1107)">
<path id="Vector" d="M12.4797 4.564C13.3135 5.0535 14.1208 5.83094 14.4913 6.43562C14.4913 6.43562 14.7428 6.14768 14.7692 6.11888C15.2589 5.41343 15.3515 4.40563 15.0339 3.61379C14.9413 3.38343 14.8354 3.18187 14.7031 2.99471C13.9355 1.90053 12.6915 1.31025 11.5269 0.878333C9.92556 0.259256 8.28453 0.086491 6.6038 0.0145054C4.92308 -0.0574802 3.11001 0.086491 1.40281 0.48961C1.27047 0.518405 0 0.806347 0 0.907127V3.97371C4.0761 2.70677 8.90653 2.44762 12.4797 4.564Z" fill="black"/>
<path id="Vector_2" d="M10.6534 13.9653C11.5137 13.6197 12.3342 13.1878 13.1017 12.6407C13.8296 12.1224 14.5178 11.5034 15.0869 10.7835C15.5633 10.1788 16 9.43017 16 8.60953V5.255C15.6295 7.7601 10.7725 10.7115 4.22168 11.057V15.2178C4.59223 15.261 6.60381 15.0306 6.82879 14.9875C8.1125 14.7715 9.42267 14.4548 10.6534 13.9653Z" fill="black"/>
<path id="Vector_3" d="M16 13.4325V10.9418C15.2986 14.8722 10.3094 18.7018 4.22168 18.8314V24.0144C4.22168 24.0575 6.3259 23.7264 6.52441 23.6832C7.30522 23.5105 8.0728 23.2945 8.8139 22.9922C12.5724 21.5237 16 18.0396 16 13.4325Z" fill="black"/>
</g>
<defs>
<clipPath id="clip0_1_1107">
<rect width="16" height="24" fill="white"/>
</clipPath>
</defs>
</svg>
