<svg width="64" height="64" viewBox="0 0 64 64" fill="none" xmlns="http://www.w3.org/2000/svg">
<g clip-path="url(#clip0_1_750)">
<rect width="64" height="64" rx="32" fill="black"/>
<path d="M43.5229 25.5298L44.8449 22.6014L47.7733 21.2794C48.4259 20.9782 48.4259 20.0578 47.7733 19.7566L44.8449 18.4346L43.5229 15.4895C43.2217 14.8368 42.3013 14.8368 42.0001 15.4895L40.6781 18.4179L37.733 19.7399C37.0803 20.0411 37.0803 20.9614 37.733 21.2627L40.6614 22.5846L41.9834 25.5298C42.2846 26.1824 43.2217 26.1824 43.5229 25.5298ZM30.2027 28.0399L27.542 22.183C26.9564 20.8778 25.0822 20.8778 24.4965 22.183L21.8358 28.0399L15.9789 30.7006C14.6737 31.303 14.6737 33.1604 15.9789 33.7461L21.8358 36.4068L24.4965 42.2637C25.0989 43.5689 26.9564 43.5689 27.542 42.2637L30.2027 36.4068L36.0596 33.7461C37.3648 33.1437 37.3648 31.2862 36.0596 30.7006L30.2027 28.0399ZM41.9834 38.9169L40.6614 41.8453L37.733 43.1673C37.0803 43.4685 37.0803 44.3889 37.733 44.6901L40.6614 46.012L41.9834 48.9572C42.2846 49.6098 43.2049 49.6098 43.5062 48.9572L44.8281 46.0288L47.7733 44.7068C48.4259 44.4056 48.4259 43.4852 47.7733 43.184L44.8449 41.862L43.5229 38.9169C43.2217 38.2643 42.2846 38.2643 41.9834 38.9169Z" fill="white"/>
</g>
<defs>
<clipPath id="clip0_1_750">
<rect width="64" height="64" rx="32" fill="white"/>
</clipPath>
</defs>
</svg>
