<svg width="64" height="64" viewBox="0 0 64 64" fill="none" xmlns="http://www.w3.org/2000/svg">
<rect width="64" height="64" rx="32" fill="white"/>
<g clip-path="url(#clip0_1_759)">
<rect width="64" height="64" rx="32" fill="black"/>
<path d="M20.9319 18.4517C19.8649 18.7375 19.2318 19.8342 19.5176 20.9012L21.4834 28.2377C21.4841 28.2402 21.4867 28.2416 21.4892 28.241C21.4932 28.2399 21.4965 28.2442 21.4945 28.2478L21.4923 28.2517C21.4904 28.2549 21.4916 28.2591 21.495 28.2607L28.0807 31.5532C29.1527 32.0892 29.5159 33.4411 28.8567 34.4421L24.8013 40.6003C24.7993 40.6034 24.8003 40.6076 24.8035 40.6095L24.8073 40.6117C24.811 40.6138 24.8102 40.6192 24.8062 40.6203C24.8037 40.6209 24.8022 40.6235 24.8029 40.626L26.7646 47.9471C27.0505 49.014 28.1471 49.6472 29.2141 49.3613L43.8961 45.4272C44.9631 45.1414 45.5962 44.0447 45.3103 42.9777L43.3487 35.6567C43.348 35.6542 43.3454 35.6527 43.3429 35.6534C43.3389 35.6545 43.3356 35.6501 43.3377 35.6465L43.3399 35.6427C43.3417 35.6394 43.3405 35.6353 43.3371 35.6336L36.746 32.3282C35.6747 31.7909 35.3132 30.4385 35.9736 29.4383L40.0308 23.2941C40.0328 23.291 40.0318 23.2867 40.0286 23.2849L40.0248 23.2827C40.0212 23.2806 40.0219 23.2752 40.0259 23.2741C40.0284 23.2734 40.0299 23.2708 40.0292 23.2683L38.0634 15.9318C37.7775 14.8649 36.6809 14.2317 35.6139 14.5176L20.9319 18.4517Z" fill="white"/>
</g>
<defs>
<clipPath id="clip0_1_759">
<rect width="64" height="64" rx="32" fill="white"/>
</clipPath>
</defs>
</svg>
