<svg width="28" height="28" viewBox="0 0 28 28" fill="none" xmlns="http://www.w3.org/2000/svg">
<g id="28px icon=google">
<path id="Vector" d="M7.43862 11.746C7.19041 12.4716 7.06425 13.2332 7.06528 14C7.06528 14.8564 7.21928 15.6765 7.50395 16.4337C7.85874 17.3801 8.41604 18.2375 9.13686 18.9459C9.85767 19.6544 10.7246 20.1968 11.6769 20.5352C12.6293 20.8736 13.6441 20.9998 14.6503 20.9049C15.6566 20.8101 16.6299 20.4965 17.5023 19.9862H17.5034C18.8778 19.1805 19.9338 17.9272 20.4948 16.436H14.2566V11.8207H25.4625C25.7523 13.3473 25.7348 14.9163 25.4111 16.436C24.8502 19.0632 23.3996 21.4163 21.3044 23.0977C19.235 24.7641 16.6569 25.6708 13.9999 25.6667C11.9967 25.6678 10.027 25.153 8.28052 24.1719C6.53403 23.1908 5.06965 21.7764 4.02846 20.065C2.98727 18.3537 2.40437 16.403 2.33592 14.401C2.26746 12.399 2.71576 10.413 3.63762 8.63454C4.62108 6.73511 6.1079 5.14266 7.93547 4.03134C9.76305 2.92002 11.861 2.33262 13.9999 2.33337C16.8303 2.33337 19.4261 3.34137 21.4468 5.01904L17.6668 8.11304C16.7813 7.56195 15.783 7.21755 14.7461 7.10543C13.7091 6.99332 12.6603 7.11639 11.6775 7.46548C10.6947 7.81456 9.80318 8.3807 9.06931 9.12179C8.33545 9.86288 7.77807 10.7599 7.43862 11.746Z" fill="#2E2F33"/>
</g>
</svg>
