<svg width="18" height="18" viewBox="0 0 18 18" fill="none" xmlns="http://www.w3.org/2000/svg">
<g id="Group">
<path id="Vector" d="M7.54175 9.83335C7.54175 10.4084 7.07508 10.875 6.50008 10.875C5.92508 10.875 5.45841 10.4084 5.45841 9.83335C5.45841 9.25835 5.92508 8.79169 6.50008 8.79169C7.07508 8.79169 7.54175 9.25835 7.54175 9.83335ZM11.5001 8.79169C10.9251 8.79169 10.4584 9.25835 10.4584 9.83335C10.4584 10.4084 10.9251 10.875 11.5001 10.875C12.0751 10.875 12.5417 10.4084 12.5417 9.83335C12.5417 9.25835 12.0751 8.79169 11.5001 8.79169ZM17.3334 9.00002C17.3334 13.6 13.6001 17.3334 9.00008 17.3334C4.40008 17.3334 0.666748 13.6 0.666748 9.00002C0.666748 4.40002 4.40008 0.666687 9.00008 0.666687C13.6001 0.666687 17.3334 4.40002 17.3334 9.00002ZM15.6667 9.00002C15.6667 8.35002 15.5667 7.72502 15.3917 7.13335C14.8084 7.25835 14.2084 7.33335 13.5834 7.33335C10.9751 7.33335 8.65008 6.13335 7.11675 4.25835C6.24175 6.39169 4.50008 8.06669 2.33341 8.88335C2.34175 8.91669 2.33341 8.95835 2.33341 9.00002C2.33341 12.675 5.32508 15.6667 9.00008 15.6667C12.6751 15.6667 15.6667 12.675 15.6667 9.00002Z" fill="white"/>
</g>
</svg>
