<svg width="20" height="20" viewBox="0 0 20 20" fill="none" xmlns="http://www.w3.org/2000/svg">
<g id="20px icon=light no">
<g clip-path="url(#clip0_1_886)">
<rect width="20" height="20" rx="10" fill="black"/>
<path id="Vector" d="M13.9815 6.02456C13.735 5.77807 13.3368 5.77807 13.0903 6.02456L9.99967 9.10888L6.90904 6.01824C6.66255 5.77175 6.26437 5.77175 6.01788 6.01824C5.77138 6.26474 5.77138 6.66292 6.01788 6.90941L9.10851 10L6.01788 13.0907C5.77138 13.3372 5.77138 13.7353 6.01788 13.9818C6.26437 14.2283 6.66255 14.2283 6.90904 13.9818L9.99967 10.8912L13.0903 13.9818C13.3368 14.2283 13.735 14.2283 13.9815 13.9818C14.228 13.7353 14.228 13.3372 13.9815 13.0907L10.8908 10L13.9815 6.90941C14.2216 6.66924 14.2216 6.26474 13.9815 6.02456Z" fill="white"/>
</g>
</g>
<defs>
<clipPath id="clip0_1_886">
<rect width="20" height="20" rx="10" fill="white"/>
</clipPath>
</defs>
</svg>
