<svg width="64" height="64" viewBox="0 0 64 64" fill="none" xmlns="http://www.w3.org/2000/svg">
<rect width="64" height="64" rx="32" fill="black"/>
<path d="M43.6482 20.352C40.2829 16.9908 35.5136 15.0524 30.2695 15.5885C22.6924 16.3515 16.4573 22.4966 15.6108 30.0646C14.4753 40.0659 22.2175 48.5 31.9831 48.5C38.5692 48.5 44.2263 44.6438 46.869 39.0967C47.5296 37.7151 46.5386 36.1273 45.0108 36.1273C44.2469 36.1273 43.5243 36.5397 43.194 37.2202C40.861 42.2311 35.2659 45.4068 29.1546 44.0458C24.5712 43.0354 20.8755 39.3029 19.9052 34.725C18.1709 26.724 24.2615 19.6303 31.9831 19.6303C35.4104 19.6303 38.466 21.0531 40.6958 23.3009L37.5782 26.4147C36.2775 27.7138 37.1859 29.9409 39.0234 29.9409H46.4354C47.5709 29.9409 48.5 29.0129 48.5 27.8788V20.4757C48.5 18.6405 46.2702 17.7125 44.9695 19.0116L43.6482 20.352Z" fill="white"/>
</svg>
